<svg width="190" height="114" viewBox="0 0 190 114" fill="none" xmlns="http://www.w3.org/2000/svg">
<path fill-rule="evenodd" clip-rule="evenodd" d="M159.259 113.651L189.5 0H30.0768L0 113.651H159.259ZM69.043 27.1162V53H70.9727V40.6797H77.5225L84.9258 53H87.1709L79.7861 40.6797H81.9941C83.194 40.6797 84.2145 40.2653 85.0557 39.4365C85.9092 38.5954 86.3359 37.5811 86.3359 36.3936V31.4209C86.3359 30.2458 85.9092 29.2376 85.0557 28.3965C84.2145 27.543 83.194 27.1162 81.9941 27.1162H69.043ZM81.7715 38.9727H70.9727V28.8232H81.7715C82.4889 28.8232 83.0951 29.083 83.5898 29.6025C84.097 30.1097 84.3506 30.7158 84.3506 31.4209V36.3936C84.3506 37.1234 84.097 37.7357 83.5898 38.2305C83.0951 38.7253 82.4889 38.9727 81.7715 38.9727ZM90.2139 27.1162V28.8232H99.0645V53H101.013V28.8232H109.863V27.1162H90.2139ZM120.978 39.2139L112.684 53H114.817L122.035 40.9209L129.364 53H131.646L123.297 39.3252L130.552 27.1162H128.455L122.221 37.5811L115.875 27.1162H113.648L120.978 39.2139ZM68.0967 65.4209V82.7139C68.0967 83.9014 68.5111 84.9157 69.3398 85.7568C70.181 86.5856 71.1953 87 72.3828 87H85.3711C86.5586 87 87.5729 86.5856 88.4141 85.7568C89.2552 84.9157 89.6758 83.9014 89.6758 82.7139V65.4209C89.6758 64.221 89.249 63.2005 88.3955 62.3594C87.5544 61.5059 86.5462 61.0791 85.3711 61.0791H72.3828C71.2077 61.0791 70.1995 61.5059 69.3584 62.3594C68.5173 63.2005 68.0967 64.221 68.0967 65.4209ZM73.4775 82.0273C73.2301 81.7799 73.1064 81.4769 73.1064 81.1182V67.0166C73.1064 66.6579 73.2301 66.3486 73.4775 66.0889C73.7373 65.8167 74.0465 65.6807 74.4053 65.6807H83.3672C83.7259 65.6807 84.029 65.8167 84.2764 66.0889C84.5361 66.3486 84.666 66.6579 84.666 67.0166V81.1182C84.666 81.4769 84.5361 81.7799 84.2764 82.0273C84.029 82.2747 83.7259 82.3984 83.3672 82.3984H74.4053C74.0465 82.3984 73.7373 82.2747 73.4775 82.0273ZM94.2217 61.042V86.9629H99.2314V69.7812L110.939 86.9629H116.116V61.042H111.088V78.2607L99.3984 61.042H94.2217Z" fill="#81C800"/>
</svg>
