<?xml version="1.0" standalone="no"?>
<!DOCTYPE svg PUBLIC "-//W3C//DTD SVG 20010904//EN"
 "http://www.w3.org/TR/2001/REC-SVG-20010904/DTD/svg10.dtd">
<svg version="1.0" xmlns="http://www.w3.org/2000/svg"
 width="4500.000000pt" height="4500.000000pt" viewBox="0 0 4500.000000 4500.000000"
 preserveAspectRatio="xMidYMid meet">
<metadata>
Created by potrace 1.11, written by Peter Selinger 2001-2013
</metadata>
<g transform="translate(0.000000,4500.000000) scale(0.100000,-0.100000)"
fill="#000000" stroke="none">
<path d="M9505 29340 c-357 -5 -372 -6 -428 -29 -72 -29 -133 -74 -172 -130
l-30 -43 -3 -944 -2 -944 6432 -3 c4891 -2 6453 -6 6518 -15 628 -88 928 -335
1027 -847 21 -114 24 -406 4 -515 -59 -326 -251 -633 -521 -836 -168 -126
-434 -243 -682 -298 -272 -61 -209 -59 -1928 -66 -1735 -7 -1610 -2 -1736 -69
-132 -70 -230 -170 -288 -291 l-31 -65 -2 -1745 -3 -1745 1185 -574 c652 -315
1188 -571 1190 -569 3 3 22 124 43 269 l37 264 -4 1383 -4 1383 569 -4 c494
-3 579 -6 642 -21 57 -13 77 -14 88 -5 11 9 28 6 76 -11 345 -127 585 -376
761 -790 60 -141 136 -381 181 -565 344 -1434 569 -2212 732 -2537 l34 -68
1653 1 c1557 1 1649 2 1605 17 -26 9 -74 36 -107 60 -64 47 -400 393 -544 561
-323 377 -609 855 -800 1341 -123 312 -194 556 -272 937 -86 421 -186 703
-347 986 -133 232 -249 378 -465 588 -196 190 -315 266 -526 335 -117 38 -116
51 6 93 222 77 539 255 792 444 106 80 308 278 406 400 309 382 488 793 566
1294 24 154 24 636 0 818 -63 474 -198 855 -423 1190 -464 694 -1271 1115
-2449 1279 -420 58 -721 76 -1390 81 -811 7 -10957 11 -11390 5z"/>
<path d="M26743 29151 c-79 -27 -128 -64 -153 -116 -19 -40 -21 -50 -10 -76
16 -39 58 -73 139 -113 36 -19 1153 -401 2481 -849 l2415 -816 1660 -16 c913
-10 1701 -15 1750 -12 148 7 254 58 294 140 21 43 21 54 21 643 0 653 -2 673
-58 795 -88 193 -274 337 -528 407 l-99 27 -3930 2 c-3759 2 -3932 2 -3982
-16z"/>
<path d="M26516 27759 c-20 -16 -26 -29 -26 -60 0 -45 14 -79 34 -79 18 0 122
-74 175 -123 106 -101 185 -272 216 -470 13 -77 20 -655 45 -3562 16 -1908 34
-3524 39 -3590 12 -149 31 -225 86 -340 167 -355 565 -558 1185 -605 121 -9
7218 -55 7227 -47 1 2 3 282 3 623 0 511 -2 633 -14 691 -79 372 -364 631
-816 739 -71 17 -214 19 -2724 21 l-2649 3 7 2838 c5 2066 4 2859 -4 2917 -12
81 -38 155 -67 187 -22 24 -2599 878 -2651 878 -25 0 -49 -8 -66 -21z"/>
<path d="M9320 25333 c-146 -28 -321 -176 -403 -342 l-42 -84 -3 -2999 -2
-2998 5102 0 c4820 0 5104 1 5124 18 36 28 56 79 55 142 0 85 -22 128 -91 178
-36 26 -731 370 -1773 878 l-1715 834 -2136 0 -2136 0 2 998 3 997 28 54 c52
98 146 170 287 217 53 18 131 19 1803 22 l1747 3 0 1044 0 1045 -2912 -1
c-1602 -1 -2924 -4 -2938 -6z"/>
<path d="M9620 15808 c-381 -937 -694 -1709 -697 -1715 -4 -10 62 -13 310 -13
l315 0 493 1285 c345 897 496 1280 502 1268 4 -10 114 -286 245 -613 l238
-595 -157 -3 -156 -2 -93 -243 c-51 -133 -95 -248 -97 -254 -4 -10 74 -13 353
-15 l358 -3 146 -410 147 -410 331 -3 c183 -1 332 -1 332 1 0 1 -310 772 -689
1712 l-689 1710 -249 3 -250 2 -693 -1702z"/>
<path d="M17120 17206 l0 -255 658 -4 c636 -3 660 -4 739 -25 168 -44 278
-123 336 -241 31 -64 32 -69 32 -196 0 -125 -1 -133 -31 -196 -59 -123 -171
-205 -347 -251 -80 -21 -102 -22 -734 -25 l-653 -4 0 -964 0 -965 315 0 315 0
0 710 0 710 339 0 c367 0 490 10 662 54 228 58 371 135 509 275 151 153 217
300 242 539 14 134 0 314 -32 432 -34 120 -102 240 -188 331 -128 136 -273
218 -480 270 -213 54 -301 59 -1024 59 l-658 0 0 -254z"/>
<path d="M25450 17206 l0 -255 658 -4 c733 -4 735 -4 882 -74 96 -46 178 -128
211 -210 20 -50 24 -75 23 -178 0 -101 -4 -129 -23 -178 -49 -124 -179 -223
-352 -269 -82 -21 -100 -22 -741 -25 l-658 -4 0 -964 0 -965 320 0 320 0 0
709 0 709 393 5 c418 5 464 10 652 63 290 82 506 246 619 471 97 194 119 531
50 770 -86 297 -310 501 -649 591 -206 55 -217 56 -987 59 l-718 4 0 -255z"/>
<path d="M34450 17454 c-351 -30 -615 -134 -809 -318 -163 -156 -244 -336
-258 -575 -15 -259 57 -476 215 -643 138 -146 263 -211 682 -353 339 -115 438
-162 531 -256 92 -91 112 -146 107 -289 -5 -133 -32 -196 -122 -285 -158 -155
-426 -202 -689 -118 -159 50 -278 124 -390 242 l-67 71 -167 -156 c-93 -86
-186 -174 -208 -195 l-40 -39 60 -61 c258 -265 683 -415 1120 -396 488 22 843
229 1010 591 55 117 76 219 82 391 4 125 2 166 -15 246 -55 267 -246 474 -562
610 -51 22 -215 81 -364 130 -148 50 -304 107 -345 127 -95 47 -178 123 -216
199 -27 52 -29 68 -30 158 0 88 3 107 27 158 74 158 252 260 478 274 211 13
438 -74 586 -224 l51 -52 169 186 c232 256 214 228 173 264 -161 140 -411 251
-657 293 -92 16 -277 26 -352 20z"/>
</g>
</svg>
