<svg width="57" height="57" viewBox="0 0 57 57" fill="none" xmlns="http://www.w3.org/2000/svg">
<circle cx="28.5" cy="28.5" r="28.5" fill="white"/>
<g clip-path="url(#clip0_885_43)">
<path d="M51.5201 11.7046H36.7995V8.67278H48.9618C43.7752 3.32137 36.5128 -0.00750179 28.4721 0.000257676C12.7318 0.0186447 -0.0155779 12.7892 1.42887e-05 28.5294C0.00736914 36.251 3.09151 43.2474 8.08352 48.3744C7.68526 47.7906 7.40114 47.1861 7.22731 46.61C6.9379 45.6137 6.9379 44.9054 6.90554 42.0733V28.5281H11.153V42.4924C11.153 43.4576 11.1199 44.3903 11.4424 45.2595C12.3116 47.4468 14.6921 47.705 16.0439 47.705C16.7185 47.705 18.4245 47.6719 19.679 46.5776C20.9335 45.4515 20.9335 44.1646 20.9335 42.2666V28.5281H25.2133V42.8465C25.1802 45.4204 25.1802 47.5441 22.7679 49.6029C20.4509 51.6293 17.4593 51.8226 15.9155 51.8226C14.5312 51.8226 13.1808 51.6619 11.8925 51.2116C11.3632 51.0288 10.8819 50.8042 10.446 50.5513C15.3693 54.5872 21.6665 57.0067 28.5292 57.0002C44.2695 56.9855 57.0169 44.2126 57 28.4723C56.9963 22.2011 54.958 16.4073 51.5202 11.7046M50.1891 26.8896L48.369 24.3002C48.9748 23.9032 50.865 22.6669 50.865 19.1914C50.865 18.6089 50.8183 18.0018 50.5848 17.4193C50.0957 16.2296 49.2563 16.0194 48.6959 16.0194C47.6464 16.0194 47.2727 16.7421 47.0626 17.2558C46.9225 17.6294 46.8993 17.6761 46.5502 19.168L46.1298 21.1516C45.8732 22.2011 45.7562 22.7136 45.5473 23.2273C45.2436 23.9732 44.2409 26.0023 41.5114 26.0023C38.3862 26.0023 36.3805 23.3674 36.3805 19.4949C36.3805 15.9494 38.1293 14.0372 39.7159 12.8709L41.6048 15.3903C40.7888 15.9494 39.1555 17.0223 39.1555 19.6584C39.1555 21.3151 39.9027 22.7603 41.1624 22.7603C42.5609 22.7603 42.8412 21.2217 43.1214 19.7284L43.4937 18.0264C43.9607 15.8093 44.8701 12.6841 48.3923 12.6841C52.1714 12.6841 53.688 16.1829 53.688 19.6817C53.688 20.5912 53.5945 21.6174 53.3143 22.6202C52.9874 23.7164 52.1947 25.6533 50.1891 26.8896Z" fill="black"/>
</g>
<defs>
<clipPath id="clip0_885_43">
<rect width="57" height="57" fill="white"/>
</clipPath>
</defs>
</svg>
